STARTFONT 2.1
FONT matty.hebrew.9
SIZE 17 72 72
FONTBOUNDINGBOX 15 17 0 -2
STARTPROPERTIES 4
FONT_DESCENT 2
FONT_ASCENT 15
DEFAULT_CHAR 48
COPYRIGHT "Copyright (c) 1993 James Matthew Farrow - All rights reserved."
ENDPROPERTIES
CHARS 34
STARTCHAR ch-48
ENCODING 48
SWIDTH 529 0
DWIDTH 9 0
BBX 9 17 0 -2
BITMAP
0000
0000
0000
0000
0800
1800
1800
1800
1800
1800
1800
1800
1800
1800
1800
1000
0000
ENDCHAR
STARTCHAR ch-51
ENCODING 51
SWIDTH 529 0
DWIDTH 9 0
BBX 9 17 0 -2
BITMAP
0000
0000
0000
0000
0000
0000
0800
1c00
1c00
0800
0000
0800
1c00
1c00
0800
0000
0000
ENDCHAR
STARTCHAR ch-64
ENCODING 64
SWIDTH 647 0
DWIDTH 11 0
BBX 11 17 0 -2
BITMAP
0000
0000
0000
0000
4200
c700
e380
73c0
3c80
5c00
ce00
e700
6380
6180
c100
0000
0000
ENDCHAR
STARTCHAR ch-65
ENCODING 65
SWIDTH 647 0
DWIDTH 11 0
BBX 11 17 0 -2
BITMAP
0000
0000
0000
0000
4000
7e00
3f00
0300
0100
0100
0100
0100
0100
7fc0
ff80
0000
0000
ENDCHAR
STARTCHAR ch-66
ENCODING 66
SWIDTH 647 0
DWIDTH 11 0
BBX 11 17 0 -2
BITMAP
0000
0000
0000
0000
1000
1e00
0f00
0100
0100
0100
0100
0100
0280
3c80
7840
0000
0000
ENDCHAR
STARTCHAR ch-67
ENCODING 67
SWIDTH 647 0
DWIDTH 11 0
BBX 11 17 0 -2
BITMAP
0000
0000
0000
0000
8000
ff80
7fc0
0100
0100
0100
0100
0100
0100
0100
0100
0000
0000
ENDCHAR
STARTCHAR ch-68
ENCODING 68
SWIDTH 647 0
DWIDTH 11 0
BBX 11 17 0 -2
BITMAP
0000
0000
0000
0000
8000
ff80
7fc0
0100
3100
6100
6100
6100
6100
6100
c100
0000
0000
ENDCHAR
STARTCHAR ch-69
ENCODING 69
SWIDTH 529 0
DWIDTH 9 0
BBX 9 17 0 -2
BITMAP
0000
0000
0000
0000
2000
3c00
1e00
0200
0200
0200
0200
0200
0200
0200
0200
0000
0000
ENDCHAR
STARTCHAR ch-70
ENCODING 70
SWIDTH 529 0
DWIDTH 9 0
BBX 9 17 0 -2
BITMAP
0000
0000
0000
2000
7000
7c00
1e00
1400
1000
1000
1000
1000
1000
1000
1000
0000
0000
ENDCHAR
STARTCHAR ch-71
ENCODING 71
SWIDTH 647 0
DWIDTH 11 0
BBX 11 17 0 -2
BITMAP
0000
0000
0000
0000
8000
ff80
7fc0
2100
6100
6100
6100
6100
6100
6100
c100
0000
0000
ENDCHAR
STARTCHAR ch-72
ENCODING 72
SWIDTH 647 0
DWIDTH 11 0
BBX 11 17 0 -2
BITMAP
0000
0000
0000
0000
c000
e700
7780
b4c0
8440
8840
8840
4080
4080
7f80
7f80
0000
0000
ENDCHAR
STARTCHAR ch-73
ENCODING 73
SWIDTH 529 0
DWIDTH 9 0
BBX 9 17 0 -2
BITMAP
0000
0000
0000
0000
2000
3c00
1e00
0200
0200
0400
0400
0800
0000
0000
0000
0000
0000
ENDCHAR
STARTCHAR ch-74
ENCODING 74
SWIDTH 647 0
DWIDTH 11 0
BBX 11 17 0 -2
BITMAP
0000
0000
0000
0000
8000
ff80
7fc0
0100
0100
0100
0100
0100
0100
0100
0100
0100
0100
ENDCHAR
STARTCHAR ch-75
ENCODING 75
SWIDTH 647 0
DWIDTH 11 0
BBX 11 17 0 -2
BITMAP
0000
0000
0000
0000
4000
7e00
3f00
0180
0080
0080
0080
0080
0180
7f00
fe00
0000
0000
ENDCHAR
STARTCHAR ch-76
ENCODING 76
SWIDTH 647 0
DWIDTH 11 0
BBX 11 17 0 -2
BITMAP
4000
2000
2000
4000
4000
7f80
3fc0
0040
0040
0040
0080
0300
0400
0c00
0c00
0000
0000
ENDCHAR
STARTCHAR ch-77
ENCODING 77
SWIDTH 647 0
DWIDTH 11 0
BBX 11 17 0 -2
BITMAP
0000
0000
0000
0000
8000
ff80
7fc0
20c0
4040
4040
4040
4040
4040
7fc0
7fc0
0000
0000
ENDCHAR
STARTCHAR ch-78
ENCODING 78
SWIDTH 647 0
DWIDTH 11 0
BBX 11 17 0 -2
BITMAP
0000
0000
0000
0000
c000
e700
7f80
3180
20c0
2040
4040
4040
4040
4780
8f80
0000
0000
ENDCHAR
STARTCHAR ch-79
ENCODING 79
SWIDTH 529 0
DWIDTH 9 0
BBX 9 17 0 -2
BITMAP
0000
0000
0000
3c00
6600
c300
c300
c300
c300
c300
c300
6600
3c00
0000
0000
0000
0000
ENDCHAR
STARTCHAR ch-80
ENCODING 80
SWIDTH 529 0
DWIDTH 9 0
BBX 9 17 0 -2
BITMAP
0000
0000
0000
0000
2000
3c00
1e00
0600
0200
0200
0200
0200
0200
3e00
3e00
0000
0000
ENDCHAR
STARTCHAR ch-81
ENCODING 81
SWIDTH 647 0
DWIDTH 11 0
BBX 11 17 0 -2
BITMAP
0000
0000
0000
0000
8000
ff00
7f80
20c0
4040
4040
4040
4040
60c0
3f80
1f00
0000
0000
ENDCHAR
STARTCHAR ch-82
ENCODING 82
SWIDTH 647 0
DWIDTH 11 0
BBX 11 17 0 -2
BITMAP
0000
0000
0000
0000
6300
7380
39c0
18c0
1080
1080
0880
0980
0f00
7e00
7800
0000
0000
ENDCHAR
STARTCHAR ch-83
ENCODING 83
SWIDTH 647 0
DWIDTH 11 0
BBX 11 17 0 -2
BITMAP
0000
0000
0000
0000
4000
7f00
3f80
10c0
2040
3840
3c40
0040
0040
0040
0040
0040
0040
ENDCHAR
STARTCHAR ch-84
ENCODING 84
SWIDTH 647 0
DWIDTH 11 0
BBX 11 17 0 -2
BITMAP
0000
0000
0000
0000
4000
7f00
3f80
10c0
2040
3840
3c40
0040
00c0
7f80
ff00
0000
0000
ENDCHAR
STARTCHAR ch-85
ENCODING 85
SWIDTH 529 0
DWIDTH 9 0
BBX 9 17 0 -2
BITMAP
0000
0000
0000
6300
6300
6300
6300
6300
6300
6300
6300
3600
1c00
0000
0000
0000
0000
ENDCHAR
STARTCHAR ch-86
ENCODING 86
SWIDTH 647 0
DWIDTH 11 0
BBX 11 17 0 -2
BITMAP
0000
0000
0000
0000
8300
e380
61c0
22c0
2200
1400
0c00
0300
0080
7f80
ff00
0000
0000
ENDCHAR
STARTCHAR ch-87
ENCODING 87
SWIDTH 529 0
DWIDTH 9 0
BBX 9 17 0 -2
BITMAP
0000
0000
0000
c300
c300
db00
db00
db00
da00
6e00
6e00
6600
6600
0000
0000
0000
0000
ENDCHAR
STARTCHAR ch-88
ENCODING 88
SWIDTH 529 0
DWIDTH 9 0
BBX 9 17 0 -2
BITMAP
0000
0000
0000
6300
6300
6300
3200
1c00
1c00
2600
6300
6300
6300
0000
0000
0000
0000
ENDCHAR
STARTCHAR ch-89
ENCODING 89
SWIDTH 882 0
DWIDTH 15 0
BBX 15 17 0 -2
BITMAP
0000
0000
0000
0000
c630
e738
739c
b39c
8420
8420
8820
4840
5040
7fc0
7fc0
0000
0000
ENDCHAR
STARTCHAR ch-90
ENCODING 90
SWIDTH 647 0
DWIDTH 11 0
BBX 11 17 0 -2
BITMAP
0000
0000
0000
0000
8000
ff80
7fc0
20c0
4040
4040
4040
2040
2040
e040
c040
0000
0000
ENDCHAR
STARTCHAR ch-96
ENCODING 96
SWIDTH 588 0
DWIDTH 10 0
BBX 10 17 0 -2
BITMAP
0000
0000
2200
7700
3b80
1980
1980
1980
1980
1980
1980
1980
1100
0000
0000
0000
0000
ENDCHAR
STARTCHAR ch-97
ENCODING 97
SWIDTH 588 0
DWIDTH 10 0
BBX 10 17 0 -2
BITMAP
0000
0000
2200
7700
3380
2180
4180
0180
0180
0180
0180
0180
0100
0000
0000
0000
0000
ENDCHAR
STARTCHAR ch-98
ENCODING 98
SWIDTH 529 0
DWIDTH 9 0
BBX 9 17 0 -2
BITMAP
0000
0000
2200
7700
3300
2200
4400
0000
0000
0000
0000
0000
0000
0000
0000
0000
0000
ENDCHAR
STARTCHAR ch-99
ENCODING 99
SWIDTH 529 0
DWIDTH 9 0
BBX 9 17 0 -2
BITMAP
0000
0c00
1800
1000
2000
0000
0000
0000
0000
0000
0000
0000
0000
0000
0000
0000
0000
ENDCHAR
STARTCHAR ch-100
ENCODING 100
SWIDTH 529 0
DWIDTH 9 0
BBX 9 17 0 -2
BITMAP
0000
3300
6600
4400
8800
0000
0000
0000
0000
0000
0000
0000
0000
0000
0000
0000
0000
ENDCHAR
ENDFONT
